<?xml version="1.0" encoding="utf-8"?>
<!-- Generator: Adobe Illustrator 15.0.0, SVG Export Plug-In  -->
<!DOCTYPE svg PUBLIC "-//W3C//DTD SVG 1.1//EN" "http://www.w3.org/Graphics/SVG/1.1/DTD/svg11.dtd" [
	<!ENTITY ns_flows "http://ns.adobe.com/Flows/1.0/">
]>
<svg version="1.1"
	 xmlns="http://www.w3.org/2000/svg" xmlns:xlink="http://www.w3.org/1999/xlink" xmlns:a="http://ns.adobe.com/AdobeSVGViewerExtensions/3.0/"
	 x="0px" y="0px" width="432px" height="432px" viewBox="0 0 432 432" style="enable-background:new 0 0 432 432;"
	 xml:space="preserve">
<style type="text/css">
<![CDATA[
	.st0{fill:#FF6138;}
	.st1{fill:#FFFFFF;}
	.st2{fill:none;}
]]>
</style>
<defs>
</defs>
<g id="Circle_3_">
	<path class="st0" d="M216,13.333c27.365,0,53.905,5.356,78.883,15.921c24.132,10.207,45.808,24.822,64.424,43.438
		c18.617,18.617,33.232,40.292,43.438,64.424c10.565,24.978,15.922,51.518,15.922,78.884s-5.356,53.906-15.922,78.884
		c-10.206,24.132-24.821,45.807-43.438,64.424c-18.616,18.616-40.292,33.231-64.424,43.438
		c-24.978,10.564-51.518,15.921-78.883,15.921c-27.366,0-53.906-5.356-78.883-15.921c-24.132-10.207-45.808-24.822-64.424-43.438
		c-18.617-18.617-33.231-40.292-43.438-64.424C18.69,269.906,13.333,243.366,13.333,216s5.356-53.906,15.921-78.884
		c10.207-24.132,24.822-45.807,43.438-64.424c18.617-18.616,40.292-33.231,64.424-43.438C162.094,18.689,188.634,13.333,216,13.333
		 M216,0C96.707,0,0,96.705,0,216s96.707,216,216,216c119.293,0,216-96.705,216-216S335.293,0,216,0L216,0z"/>
</g>
<path class="st2" d="M177.389,272.277c-0.358-30.452,5.656-39.528,10.211-43.705c8.197-7.519,25.062-8.103,30.035-8.103
	c7.784,0,21.838,1.129,28.498,8.688c3.919,4.449,9.094,13.805,8.779,43.555c-0.116,11.031-0.963,21.109-1.455,26.119
	c11.571,0.824,23.598,2.093,35.938,3.903V177.813L216,131.878l-73.396,45.936V302.83c7.807-1.121,16.447-2.176,25.825-3.049
	c3.383-0.314,6.931-0.607,10.608-0.873C178.483,293.812,177.521,283.49,177.389,272.277z"/>
<polygon class="st2" points="165.01,131.545 142.604,131.545 142.604,156.669 165.01,143.901 "/>
<path class="st2" d="M234.539,239.372c-0.953-1.081-6.532-3.451-16.904-3.451c-10.36,0-17.815,2.41-19.59,4.038
	c-5.42,4.971-6.367,30.389-4.067,53.546h44.488C240.504,270.674,239.687,245.216,234.539,239.372z"/>
<path class="st0" d="M331.267,204.019c1.274,0.798,2.691,1.178,4.091,1.178c2.574,0,5.091-1.285,6.557-3.628
	c2.264-3.617,1.167-8.384-2.45-10.647l-119.365-74.706c-0.038-0.023-0.077-0.041-0.115-0.064c-0.136-0.082-0.274-0.158-0.416-0.231
	c-0.094-0.05-0.188-0.099-0.284-0.144c-0.123-0.058-0.248-0.11-0.375-0.161c-0.115-0.048-0.231-0.095-0.349-0.136
	c-0.109-0.038-0.22-0.071-0.331-0.105c-0.133-0.039-0.265-0.079-0.398-0.111c-0.105-0.026-0.212-0.046-0.318-0.067
	c-0.137-0.027-0.272-0.055-0.41-0.074c-0.117-0.017-0.234-0.027-0.352-0.039c-0.125-0.012-0.249-0.024-0.373-0.03
	c-0.139-0.008-0.279-0.007-0.418-0.006c-0.102,0-0.204-0.001-0.306,0.004c-0.16,0.007-0.32,0.022-0.48,0.04
	c-0.082,0.009-0.164,0.016-0.245,0.027c-0.169,0.023-0.336,0.056-0.504,0.091c-0.075,0.016-0.151,0.029-0.226,0.048
	c-0.16,0.038-0.318,0.085-0.476,0.134c-0.086,0.026-0.172,0.052-0.258,0.082c-0.136,0.047-0.271,0.102-0.405,0.156
	c-0.109,0.045-0.218,0.091-0.325,0.141c-0.107,0.051-0.214,0.105-0.32,0.161c-0.131,0.068-0.261,0.141-0.389,0.217
	c-0.041,0.024-0.083,0.044-0.124,0.069l-31.439,19.677v-12.072c0-4.267-3.459-7.726-7.726-7.726h-37.858
	c-4.267,0-7.726,3.459-7.726,7.726v45.438l-34.615,21.664c-3.617,2.264-4.714,7.03-2.45,10.647c1.466,2.343,3.982,3.628,6.556,3.628
	c1.4,0,2.817-0.38,4.091-1.178l26.418-16.534V305.3c-19.225,3.396-30.569,6.657-31.302,6.87c-4.097,1.192-6.451,5.48-5.259,9.577
	c0.982,3.376,4.067,5.568,7.415,5.568c0.715,0,1.442-0.1,2.163-0.31c1.089-0.317,110.353-31.347,232.05,0.063
	c4.128,1.066,8.345-1.417,9.411-5.55c1.066-4.132-1.418-8.345-5.55-9.411c-10.539-2.721-20.973-4.977-31.233-6.84V187.483
	L331.267,204.019z M142.604,131.545h22.406v12.356l-22.406,12.768V131.545z M142.604,302.83V177.813L216,131.878l73.396,45.935
	v124.923c-12.341-1.811-24.367-3.079-35.938-3.903c0.492-5.01,1.339-15.088,1.455-26.119c0.314-29.75-4.86-39.105-8.779-43.555
	c-6.66-7.56-20.714-8.688-28.498-8.688c-4.973,0-21.837,0.584-30.035,8.103c-4.555,4.177-10.569,13.253-10.211,43.705
	c0.131,11.213,1.094,21.534,1.648,26.631c-3.678,0.266-7.226,0.559-10.608,0.873C159.051,300.654,150.411,301.709,142.604,302.83z
	 M198.044,239.959c1.775-1.628,9.23-4.038,19.59-4.038c10.372,0,15.951,2.37,16.904,3.451c5.147,5.844,5.965,31.302,3.927,54.133
	h-44.488C191.677,270.348,192.625,244.93,198.044,239.959z"/>
</svg>
