<?xml version="1.0" encoding="utf-8"?>
<!-- Generator: Adobe Illustrator 15.0.0, SVG Export Plug-In  -->
<!DOCTYPE svg PUBLIC "-//W3C//DTD SVG 1.1//EN" "http://www.w3.org/Graphics/SVG/1.1/DTD/svg11.dtd" [
	<!ENTITY ns_flows "http://ns.adobe.com/Flows/1.0/">
]>
<svg version="1.1"
	 xmlns="http://www.w3.org/2000/svg" xmlns:xlink="http://www.w3.org/1999/xlink" xmlns:a="http://ns.adobe.com/AdobeSVGViewerExtensions/3.0/"
	 x="0px" y="0px" width="433px" height="1895px" viewBox="-0.667 0 433 1895" style="enable-background:new -0.667 0 433 1895;"
	 xml:space="preserve">
<defs>
</defs>
<g id="Circle_5_">
	<path style="fill:#FFFFFF;" d="M216.333,1888.004C100.906,1888.004,7,1794.098,7,1678.671s93.907-209.333,209.333-209.333
		s209.333,93.906,209.333,209.333S331.76,1888.004,216.333,1888.004z"/>
	<path style="fill:#FF6138;" d="M216.333,1476.004c27.365,0,53.905,5.357,78.883,15.921c24.132,10.207,45.808,24.822,64.424,43.438
		c18.617,18.617,33.232,40.292,43.438,64.424c10.564,24.978,15.922,51.518,15.922,78.884s-5.357,53.906-15.922,78.884
		c-10.206,24.132-24.821,45.807-43.438,64.424c-18.616,18.616-40.292,33.231-64.424,43.438
		c-24.978,10.563-51.518,15.921-78.883,15.921c-27.366,0-53.906-5.357-78.883-15.921c-24.132-10.207-45.808-24.822-64.424-43.438
		c-18.617-18.617-33.231-40.292-43.438-64.424c-10.564-24.978-15.921-51.518-15.921-78.884s5.356-53.906,15.921-78.884
		c10.207-24.132,24.822-45.807,43.438-64.424c18.617-18.616,40.292-33.231,64.424-43.438
		C162.427,1481.361,188.967,1476.004,216.333,1476.004 M216.333,1462.671c-119.293,0-216,96.705-216,216s96.707,216,216,216
		c119.293,0,216-96.705,216-216S335.626,1462.671,216.333,1462.671L216.333,1462.671z"/>
</g>
<path style="display:none;fill:#FFFFFF;stroke:#FF6138;stroke-width:10;stroke-miterlimit:10;" d="M285.865,1635.609
	c0,0-50.918-1.844-50.918,72.836"/>
<path style="fill:#FFFFFF;stroke:#FF6138;stroke-width:10;stroke-miterlimit:10;" d="M285.865,1635.609
	c0,0,50.917-1.844,50.917,72.836"/>
<g>
	<path style="fill:#FFFFFF;" d="M285.865,1650.893c-18.596,0-33.724-17.92-33.724-39.946S267.27,1571,285.865,1571
		c18.595,0,33.723,17.92,33.723,39.946S304.46,1650.893,285.865,1650.893z"/>
	<path style="fill:#FF6138;" d="M285.865,1576c15.838,0,28.723,15.677,28.723,34.946s-12.885,34.946-28.723,34.946
		s-28.724-15.677-28.724-34.946S270.027,1576,285.865,1576 M285.865,1566c-21.386,0-38.724,20.123-38.724,44.946
		s17.338,44.946,38.724,44.946c21.385,0,38.723-20.123,38.723-44.946S307.25,1566,285.865,1566L285.865,1566z"/>
</g>
<path style="fill:#FFFFFF;stroke:#FF6138;stroke-width:10;stroke-miterlimit:10;" d="M146.865,1635.609
	c0,0-50.918-1.844-50.918,72.836"/>
<g>
	<path style="fill:#FFFFFF;" d="M146.865,1650.893c-18.595,0-33.723-17.92-33.723-39.946S128.27,1571,146.865,1571
		s33.723,17.92,33.723,39.946S165.46,1650.893,146.865,1650.893z"/>
	<path style="fill:#FF6138;" d="M146.865,1576c15.838,0,28.723,15.677,28.723,34.946s-12.885,34.946-28.723,34.946
		s-28.723-15.677-28.723-34.946S131.027,1576,146.865,1576 M146.865,1566c-21.386,0-38.723,20.123-38.723,44.946
		s17.337,44.946,38.723,44.946c21.385,0,38.723-20.123,38.723-44.946S168.25,1566,146.865,1566L146.865,1566z"/>
</g>
<path style="fill:#FFFFFF;stroke:#FF6138;stroke-width:13.3333;stroke-miterlimit:10;" d="M216.865,1657.854
	c0,0-77.891,8.15-77.891,124.146"/>
<path style="fill:#FFFFFF;stroke:#FF6138;stroke-width:13.3333;stroke-miterlimit:10;" d="M216.865,1657.854
	c0,0,77.89,8.15,77.89,124.146"/>
<g>
	<path style="fill:#FFFFFF;" d="M216.865,1678.23c-24.793,0-44.964-23.893-44.964-53.262s20.171-53.262,44.964-53.262
		c24.793,0,44.964,23.893,44.964,53.262S241.658,1678.23,216.865,1678.23z"/>
	<path style="fill:#FF6138;" d="M216.865,1578.373c21.117,0,38.298,20.903,38.298,46.596s-17.181,46.596-38.298,46.596
		s-38.297-20.903-38.297-46.596S195.748,1578.373,216.865,1578.373 M216.865,1565.04c-28.514,0-51.631,26.831-51.631,59.929
		s23.117,59.929,51.631,59.929c28.514,0,51.631-26.831,51.631-59.929S245.379,1565.04,216.865,1565.04L216.865,1565.04z"/>
</g>
<g id="Circle_4_">
	<path style="fill:#FFFFFF;" d="M216.333,1397.333C100.906,1397.333,7,1303.427,7,1188s93.907-209.333,209.333-209.333
		S425.666,1072.573,425.666,1188S331.76,1397.333,216.333,1397.333z"/>
	<path style="fill:#FF6138;" d="M216.333,985.333c27.365,0,53.905,5.356,78.883,15.921c24.132,10.207,45.808,24.822,64.424,43.438
		c18.617,18.617,33.232,40.292,43.438,64.424C413.643,1134.094,419,1160.634,419,1188s-5.357,53.906-15.922,78.884
		c-10.206,24.132-24.821,45.807-43.438,64.424c-18.616,18.616-40.292,33.231-64.424,43.438
		c-24.978,10.564-51.518,15.921-78.883,15.921c-27.366,0-53.906-5.356-78.883-15.921c-24.132-10.207-45.808-24.822-64.424-43.438
		c-18.617-18.617-33.231-40.292-43.438-64.424c-10.564-24.978-15.921-51.518-15.921-78.884s5.356-53.906,15.921-78.884
		c10.207-24.132,24.822-45.807,43.438-64.424c18.617-18.616,40.292-33.231,64.424-43.438
		C162.427,990.689,188.967,985.333,216.333,985.333 M216.333,972c-119.293,0-216,96.705-216,216s96.707,216,216,216
		c119.293,0,216-96.705,216-216S335.626,972,216.333,972L216.333,972z"/>
</g>
<path style="fill:#FFFFFF;stroke:#FF6138;stroke-width:15.4517;stroke-miterlimit:10;" d="M245.768,1273.23h-58.349
	c0,0-7.17-55.128,5.736-66.965c8.4-7.704,40.048-8.475,47.514,0C252.141,1219.288,245.768,1273.23,245.768,1273.23z"/>
<rect id="Covering_block_for_bottom_of_house_shape_1_" x="119.1" y="1282.005" style="fill:#FFFFFF;" width="202.692" height="39.899"/>
<path style="fill:#FFFFFF;stroke:#FF6138;stroke-width:15.4517;stroke-linecap:round;stroke-miterlimit:10;" d="M98.342,1291.588
	c0,0,110.981-32.304,236.14,0"/>
<line style="fill:#FFFFFF;stroke:#FF6138;stroke-width:15.4517;stroke-linecap:round;stroke-miterlimit:10;" x1="96.968" y1="1169.47" x2="216.333" y2="1094.764"/>
<line style="fill:#FFFFFF;stroke:#FF6138;stroke-width:15.4517;stroke-linecap:round;stroke-miterlimit:10;" x1="335.698" y1="1169.47" x2="216.333" y2="1094.764"/>
<line style="fill:#FFFFFF;stroke:#FF6138;stroke-width:15.4517;stroke-miterlimit:10;" x1="135.211" y1="1147.552" x2="135.211" y2="1280.41"/>
<line style="fill:#FFFFFF;stroke:#FF6138;stroke-width:15.4517;stroke-miterlimit:10;" x1="297.454" y1="1147.552" x2="297.454" y2="1280.41"/>
<polygon style="fill:#FFFFFF;stroke:#FF6138;stroke-width:15.4517;stroke-linecap:round;stroke-linejoin:round;stroke-miterlimit:10;" points="
	135.211,1141.963 135.211,1095.819 173.069,1095.819 173.069,1120.392 "/>
<g id="Circle_3_">
	<path style="fill:#FFFFFF;" d="M216,911.833c-115.427,0-209.333-93.906-209.333-209.333S100.573,493.167,216,493.167
		S425.333,587.073,425.333,702.5S331.427,911.833,216,911.833z"/>
	<path style="fill:#FF6138;" d="M216,499.833c27.365,0,53.905,5.356,78.883,15.921c24.132,10.207,45.807,24.822,64.424,43.438
		c18.617,18.617,33.232,40.292,43.438,64.424c10.565,24.977,15.922,51.517,15.922,78.883c0,27.366-5.356,53.906-15.922,78.884
		c-10.206,24.132-24.821,45.807-43.438,64.424c-18.616,18.616-40.292,33.231-64.424,43.438
		c-24.978,10.564-51.518,15.921-78.883,15.921c-27.366,0-53.906-5.356-78.883-15.921c-24.132-10.207-45.808-24.822-64.424-43.438
		c-18.617-18.617-33.231-40.292-43.438-64.424C18.69,756.406,13.333,729.866,13.333,702.5c0-27.366,5.356-53.906,15.921-78.883
		c10.207-24.132,24.822-45.807,43.438-64.424c18.617-18.617,40.292-33.231,64.424-43.438
		C162.094,505.19,188.634,499.833,216,499.833 M216,486.5c-119.293,0-216,96.707-216,216c0,119.295,96.707,216,216,216
		c119.293,0,216-96.705,216-216C432,583.207,335.293,486.5,216,486.5L216,486.5z"/>
</g>
<g>
	<path style="fill:#FFFFFF;" d="M157.002,801.828c-18.61,0-36.429-9.772-47.664-26.142c-8.704-12.684-12.351-27.684-10.269-42.238
		c2.048-14.315,9.419-26.484,20.757-34.265l129.386-88.797c8.025-5.506,17.533-8.417,27.498-8.417
		c18.609,0,36.428,9.773,47.662,26.143c17.828,25.98,13.122,60.301-10.49,76.506l-129.385,88.792
		C176.475,798.918,166.967,801.828,157.002,801.828z"/>
	<path style="fill:#FF6138;" d="M276.711,609.571c16.104,0,31.578,8.539,41.395,22.842c15.457,22.525,11.633,52.105-8.523,65.939
		l-36.732,25.208l-30.516,20.941l-47.744,32.767l0-0.002l-14.393,9.878c-6.752,4.633-14.772,7.082-23.195,7.082
		c-16.104,0-31.58-8.539-41.396-22.841c-7.623-11.107-10.824-24.198-9.012-36.861c1.743-12.186,7.97-22.511,17.535-29.074
		l62.137-42.645l30.515-20.941l12.929-8.873v0.001l23.805-16.337C260.268,612.021,268.288,609.571,276.711,609.571 M276.711,594.369
		c-11.143,0-22.179,3.15-31.799,9.752v-0.001l-36.734,25.21l-30.515,20.941l-62.138,42.645
		c-27.11,18.604-32.688,57.588-12.455,87.073c13.056,19.022,33.668,29.44,53.931,29.44c11.143,0,22.178-3.148,31.797-9.75
		l0.001,0.002l62.137-42.645l30.515-20.94l36.733-25.209c27.112-18.608,32.688-57.592,12.456-87.075
		C317.585,604.789,296.974,594.369,276.711,594.369L276.711,594.369z"/>
</g>
<path style="fill:#FFFFFF;stroke:#FF6138;stroke-width:15.2025;stroke-linecap:round;stroke-miterlimit:10;" d="M182.366,657.12
	c-9.257,49.756,14.114,83.81,63.868,93.066"/>
<g id="Circle_base_1_">
	<path style="fill:#FFFFFF;" d="M216.333,425.333C100.906,425.333,7,331.427,7,216S100.906,6.667,216.333,6.667
		S425.666,100.573,425.666,216S331.76,425.333,216.333,425.333z"/>
	<path style="fill:#FF6138;" d="M216.333,13.333c27.365,0,53.905,5.356,78.883,15.921c24.132,10.207,45.807,24.822,64.424,43.438
		c18.617,18.617,33.232,40.292,43.438,64.424C413.644,162.094,419,188.634,419,216s-5.356,53.906-15.922,78.883
		c-10.206,24.132-24.821,45.807-43.438,64.424c-18.617,18.617-40.292,33.231-64.424,43.438
		c-24.978,10.564-51.518,15.921-78.883,15.921c-27.366,0-53.906-5.356-78.883-15.921c-24.132-10.207-45.807-24.822-64.424-43.438
		c-18.617-18.617-33.231-40.292-43.438-64.424C19.023,269.906,13.667,243.366,13.667,216s5.356-53.906,15.921-78.883
		c10.207-24.132,24.822-45.807,43.438-64.424c18.617-18.617,40.292-33.231,64.424-43.438
		C162.427,18.69,188.967,13.333,216.333,13.333 M216.333,0c-119.293,0-216,96.707-216,216s96.707,216,216,216
		c119.293,0,216-96.707,216-216S335.626,0,216.333,0L216.333,0z"/>
</g>
<g id="Bottom_speech_bubble_1_">
	<path style="fill:#FFFFFF;" d="M136.424,291.033h-30.512c-4.842,0-8.782-3.939-8.782-8.782V138.973
		c0-4.842,3.939-8.782,8.782-8.782h191.366c4.843,0,8.782,3.939,8.782,8.782v143.278c0,4.842-3.939,8.782-8.782,8.782H173.673
		l-37.249,21.982V291.033z"/>
	<path style="fill:#FF6138;" d="M297.278,136.464c1.384,0,2.51,1.125,2.51,2.509v143.278c0,1.383-1.126,2.509-2.51,2.509H175.386
		h-3.426l-2.95,1.741l-26.313,15.528v-4.724v-12.545h-12.545h-24.239c-1.383,0-2.509-1.126-2.509-2.509V138.973
		c0-1.384,1.126-2.509,2.509-2.509H297.278 M297.278,123.919H105.913c-8.314,0-15.054,6.74-15.054,15.054v143.278
		c0,8.314,6.74,15.054,15.054,15.054h24.239V324l45.234-26.694h121.893c8.313,0,15.055-6.74,15.055-15.054V138.973
		C312.333,130.659,305.592,123.919,297.278,123.919L297.278,123.919z"/>
</g>
<g id="Top_speech_bubble_1_">
	<path style="fill:#FFFFFF;" d="M189.169,229.276h-26.503c-2.093,0-3.795-1.702-3.795-3.794v-105.38
		c0-2.092,1.702-3.794,3.795-3.794H331c2.093,0,3.795,1.702,3.795,3.794v105.38c0,2.092-1.702,3.794-3.795,3.794H229.117
		l-39.948,22.471V229.276z"/>
	<g>
		<path style="fill:#FF6138;" d="M327.142,123.96v97.663h-96.02h-4.01l-3.494,1.966l-26.796,15.073v-1.732v-15.307h-15.307h-14.991
			V123.96H327.142 M331,108.654H162.666c-6.322,0-11.448,5.125-11.448,11.448v105.38c0,6.322,5.126,11.448,11.448,11.448h18.85
			v27.904l49.606-27.904H331c6.321,0,11.448-5.125,11.448-11.448v-105.38C342.448,113.779,337.321,108.654,331,108.654L331,108.654z
			"/>
	</g>
</g>
</svg>
