<?xml version="1.0" encoding="utf-8"?>
<!-- Generator: Adobe Illustrator 15.0.0, SVG Export Plug-In  -->
<!DOCTYPE svg PUBLIC "-//W3C//DTD SVG 1.1//EN" "http://www.w3.org/Graphics/SVG/1.1/DTD/svg11.dtd" [
	<!ENTITY ns_flows "http://ns.adobe.com/Flows/1.0/">
]>
<svg version="1.1"
	 xmlns="http://www.w3.org/2000/svg" xmlns:xlink="http://www.w3.org/1999/xlink" xmlns:a="http://ns.adobe.com/AdobeSVGViewerExtensions/3.0/"
	 x="0px" y="0px" width="684px" height="360px" viewBox="-66.531 -45.149 684 360" enable-background="new -66.531 -45.149 684 360"
	 xml:space="preserve">
<defs>
</defs>
<path fill="none" stroke="#BEEB9F" stroke-width="30" stroke-linecap="round" stroke-miterlimit="10" d="M257.638,58.305
	c223.87,0,213.706,162.669,213.706,162.669"/>
<path fill="none" stroke="#BEEB9F" stroke-width="30" stroke-linecap="round" stroke-miterlimit="10" d="M256.156,60.056
	c-221.204,0-212.104,160.917-212.104,160.917"/>
<line fill="none" stroke="#BEEB9F" stroke-width="30" stroke-linecap="round" stroke-miterlimit="10" x1="257.638" y1="39.181" x2="257.638" y2="220.87"/>
<g>
	<path fill="#FFFFFF" d="M257.979,104.901c-24.222,0-43.928-19.706-43.928-43.928s19.706-43.928,43.928-43.928
		s43.928,19.706,43.928,43.928S282.201,104.901,257.979,104.901z"/>
	<path fill="#BEEB9F" d="M257.979,34.09c14.845,0,26.883,12.036,26.883,26.883s-12.038,26.883-26.883,26.883
		c-14.848,0-26.883-12.036-26.883-26.883S243.132,34.09,257.979,34.09 M257.979,0c-33.621,0-60.974,27.353-60.974,60.973
		s27.353,60.973,60.974,60.973s60.974-27.353,60.974-60.973S291.601,0,257.979,0L257.979,0z"/>
</g>
<line fill="none" stroke="#BEEB9F" stroke-width="30" stroke-linecap="round" stroke-miterlimit="10" x1="42.999" y1="235.612" x2="70.958" y2="213.835"/>
<line fill="none" stroke="#BEEB9F" stroke-width="30" stroke-linecap="round" stroke-miterlimit="10" x1="42.958" y1="235.612" x2="15" y2="213.835"/>
<line fill="none" stroke="#BEEB9F" stroke-width="30" stroke-linecap="round" stroke-miterlimit="10" x1="257.658" y1="235.612" x2="285.617" y2="213.835"/>
<line fill="none" stroke="#BEEB9F" stroke-width="30" stroke-linecap="round" stroke-miterlimit="10" x1="257.617" y1="235.612" x2="229.658" y2="213.835"/>
<line fill="none" stroke="#BEEB9F" stroke-width="30" stroke-linecap="round" stroke-miterlimit="10" x1="471.978" y1="235.612" x2="499.937" y2="213.835"/>
<line fill="none" stroke="#BEEB9F" stroke-width="30" stroke-linecap="round" stroke-miterlimit="10" x1="471.937" y1="235.612" x2="443.978" y2="213.835"/>
</svg>
