<?xml version="1.0" encoding="utf-8"?>
<!-- Generator: Adobe Illustrator 15.0.0, SVG Export Plug-In  -->
<!DOCTYPE svg PUBLIC "-//W3C//DTD SVG 1.1//EN" "http://www.w3.org/Graphics/SVG/1.1/DTD/svg11.dtd" [
	<!ENTITY ns_flows "http://ns.adobe.com/Flows/1.0/">
]>
<svg version="1.1"
	 xmlns="http://www.w3.org/2000/svg" xmlns:xlink="http://www.w3.org/1999/xlink" xmlns:a="http://ns.adobe.com/AdobeSVGViewerExtensions/3.0/"
	 x="0px" y="0px" width="684px" height="360px" viewBox="-19.497 -11.918 684 360" enable-background="new -19.497 -11.918 684 360"
	 xml:space="preserve">
<defs>
</defs>
<path fill="none" stroke="#BEEB9F" stroke-width="30" stroke-linecap="round" stroke-miterlimit="10" d="M349.976,147.771
	c0,0,47.592-66.282,124.205-63"/>
<path fill="none" stroke="#BEEB9F" stroke-width="30" stroke-linecap="round" stroke-miterlimit="10" d="M349.977,150.771
	c-17.83,3.046,169.65-18.314,224.204,5"/>
<path fill="none" stroke="#BEEB9F" stroke-width="30" stroke-linecap="round" stroke-miterlimit="10" d="M349.977,155.771
	c0,0,73.091,47.436,152.103,48.936"/>
<path fill="none" stroke="#BEEB9F" stroke-width="30" stroke-linecap="round" stroke-miterlimit="10" d="M349.977,150.771
	c0,0-12.238,101.557,229.259,129.621"/>
<path fill="none" stroke="#BEEB9F" stroke-width="30" stroke-linecap="round" stroke-miterlimit="10" d="M195.771,35.771
	c221.204,0,154.205,120,154.205,120s-117.335,28.398-244.205,16"/>
<path fill="none" stroke="#BEEB9F" stroke-width="30" stroke-linecap="round" stroke-miterlimit="10" d="M349.977,150.771
	c0,0-63.001-94.936-314.205-45"/>
<path fill="none" stroke="#BEEB9F" stroke-width="30" stroke-linecap="round" stroke-miterlimit="10" d="M349.977,150.771
	c0,0,128.433,68.8-314.205,114"/>
<g>
	<path fill="#FFFFFF" d="M502.079,230.479c-14.21,0-25.771-11.562-25.771-25.771s11.562-25.771,25.771-25.771
		s25.771,11.562,25.771,25.771S516.289,230.479,502.079,230.479z"/>
	<path fill="#BEEB9F" d="M502.079,188.936c8.71,0,15.771,7.061,15.771,15.771c0,8.71-7.062,15.771-15.771,15.771
		s-15.771-7.062-15.771-15.771C486.308,195.996,493.369,188.936,502.079,188.936 M502.079,168.936
		c-19.725,0-35.771,16.047-35.771,35.771s16.047,35.771,35.771,35.771s35.771-16.047,35.771-35.771S521.804,168.936,502.079,168.936
		L502.079,168.936z"/>
</g>
<g>
	<path fill="#FFFFFF" d="M105.771,197.314c-14.21,0-25.771-11.562-25.771-25.771c0-14.21,11.561-25.771,25.771-25.771
		s25.771,11.561,25.771,25.771C131.543,185.753,119.982,197.314,105.771,197.314z"/>
	<path fill="#BEEB9F" d="M105.771,155.771c8.708,0,15.771,7.061,15.771,15.771s-7.062,15.771-15.771,15.771S90,180.254,90,171.543
		C90,162.833,97.062,155.771,105.771,155.771 M105.771,135.771C86.047,135.771,70,151.818,70,171.543s16.047,35.771,35.771,35.771
		s35.771-16.047,35.771-35.771S125.496,135.771,105.771,135.771L105.771,135.771z"/>
</g>
<g>
	<path fill="#FFFFFF" d="M35.771,290.543c-14.21,0-25.771-11.562-25.771-25.771S21.561,239,35.771,239s25.771,11.562,25.771,25.771
		S49.982,290.543,35.771,290.543z"/>
	<path fill="#BEEB9F" d="M35.771,249c8.71,0,15.771,7.061,15.771,15.771s-7.062,15.771-15.771,15.771S20,273.482,20,264.771
		S27.062,249,35.771,249 M35.771,229C16.047,229,0,245.047,0,264.771s16.047,35.771,35.771,35.771s35.771-16.047,35.771-35.771
		S55.496,229,35.771,229L35.771,229z"/>
</g>
<g>
	<path fill="#FFFFFF" d="M196.079,61.543c-14.211,0-25.771-11.561-25.771-25.771S181.868,10,196.079,10s25.771,11.561,25.771,25.771
		S210.29,61.543,196.079,61.543z"/>
	<path fill="#BEEB9F" d="M196.079,20c8.71,0,15.771,7.061,15.771,15.771s-7.062,15.771-15.771,15.771s-15.771-7.061-15.771-15.771
		S187.369,20,196.079,20 M196.079,0c-19.725,0-35.771,16.047-35.771,35.771s16.047,35.771,35.771,35.771
		s35.771-16.047,35.771-35.771S215.804,0,196.079,0L196.079,0z"/>
</g>
<g>
	<path fill="#FFFFFF" d="M579.235,306.164c-14.21,0-25.771-11.562-25.771-25.771s11.562-25.771,25.771-25.771
		s25.771,11.562,25.771,25.771S593.445,306.164,579.235,306.164z"/>
	<path fill="#BEEB9F" d="M579.235,264.621c8.71,0,15.771,7.061,15.771,15.771s-7.062,15.771-15.771,15.771
		s-15.771-7.061-15.771-15.771S570.525,264.621,579.235,264.621 M579.235,244.621c-19.725,0-35.771,16.047-35.771,35.771
		s16.047,35.771,35.771,35.771s35.771-16.047,35.771-35.771S598.96,244.621,579.235,244.621L579.235,244.621z"/>
</g>
<g>
	<path fill="#FFFFFF" d="M574.181,181.543c-14.21,0-25.771-11.562-25.771-25.771c0-14.21,11.562-25.771,25.771-25.771
		s25.771,11.561,25.771,25.771C599.952,169.981,588.391,181.543,574.181,181.543z"/>
	<path fill="#BEEB9F" d="M574.181,140c8.71,0,15.771,7.061,15.771,15.771s-7.062,15.771-15.771,15.771s-15.771-7.061-15.771-15.771
		S565.471,140,574.181,140 M574.181,120c-19.725,0-35.771,16.047-35.771,35.771s16.047,35.771,35.771,35.771
		s35.771-16.047,35.771-35.771S593.905,120,574.181,120L574.181,120z"/>
</g>
<g>
	<path fill="#FFFFFF" d="M474.181,113.836c-14.21,0-25.771-11.561-25.771-25.771s11.562-25.771,25.771-25.771
		s25.771,11.561,25.771,25.771S488.391,113.836,474.181,113.836z"/>
	<path fill="#BEEB9F" d="M474.181,72.293c8.71,0,15.771,7.061,15.771,15.771s-7.062,15.771-15.771,15.771
		s-15.771-7.061-15.771-15.771S465.471,72.293,474.181,72.293 M474.181,52.293c-19.725,0-35.771,16.047-35.771,35.771
		s16.047,35.771,35.771,35.771s35.771-16.047,35.771-35.771S493.905,52.293,474.181,52.293L474.181,52.293z"/>
</g>
<g>
	<path fill="#FFFFFF" d="M35.771,132.8C21.561,132.8,10,121.239,10,107.028s11.561-25.771,25.771-25.771
		s25.771,11.561,25.771,25.771S49.982,132.8,35.771,132.8z"/>
	<path fill="#BEEB9F" d="M35.771,91.257c8.71,0,15.771,7.061,15.771,15.771S44.481,122.8,35.771,122.8S20,115.739,20,107.028
		S27.062,91.257,35.771,91.257 M35.771,71.257C16.047,71.257,0,87.304,0,107.028S16.047,142.8,35.771,142.8
		s35.771-16.047,35.771-35.771S55.496,71.257,35.771,71.257L35.771,71.257z"/>
</g>
<circle fill="#FFFFFF" stroke="#BEEB9F" stroke-width="25" stroke-miterlimit="10" cx="349.977" cy="150.771" r="62.707"/>
<path fill="#79BD8F" stroke="#FFFFFF" stroke-miterlimit="10" d="M349.98,111.374c7.237,0,13.003,23.476,13.003,23.476
	s22.657-2.827,24.893,4.057c2.237,6.884-17.363,18.074-17.363,18.074s8.743,22.222,2.889,26.476
	c-5.855,4.255-23.421-11.901-23.421-11.901s-17.566,16.156-23.421,11.901c-5.854-4.254,1.889-26.476,1.889-26.476
	s-18.601-11.19-16.364-18.074s24.894-4.057,24.894-4.057S342.743,111.374,349.98,111.374z"/>
</svg>
