<?xml version="1.0" encoding="utf-8"?>
<!-- Generator: Adobe Illustrator 15.0.0, SVG Export Plug-In  -->
<!DOCTYPE svg PUBLIC "-//W3C//DTD SVG 1.1//EN" "http://www.w3.org/Graphics/SVG/1.1/DTD/svg11.dtd" [
	<!ENTITY ns_flows "http://ns.adobe.com/Flows/1.0/">
]>
<svg version="1.1"
	 xmlns="http://www.w3.org/2000/svg" xmlns:xlink="http://www.w3.org/1999/xlink" xmlns:a="http://ns.adobe.com/AdobeSVGViewerExtensions/3.0/"
	 x="0px" y="0px" width="1491px" height="612px" viewBox="2.167 -8.5 1491 612" enable-background="new 2.167 -8.5 1491 612"
	 xml:space="preserve">
<defs>
</defs>
<path id="NC_outline__x28_without_outer_banks_x29__2_" fill="none" stroke="#79BD8F" stroke-width="15" stroke-linecap="round" stroke-linejoin="round" stroke-miterlimit="10" d="
	M7.5,358.167l8.667-48l10-11.167c0,0,14.667,19.166,34-0.5c19.333-19.667,0-25.667,0-25.667l22.667-20c0,0,17.333,1.333,20-9.333
	s26.667,0,26.667,0s31.333,10,46.667-22c0,0,14-26.667,43.333-23.333s30.667-17.333,30.667-17.333S237.5,154.167,263.5,167.5
	c0,0,7.333,8,12-14l19.333-12.667l6.667,9.333c0,0-10.667,26.667,14.667,7.333s4.667-22,36-30s21.333,0,21.333,0s5.333,22,45.333-38
	l12.667-9.333c0,0,16,18,9.333-8l7.333-16.667c0,0-7.333-10,6-21.333c0,0,394,16.333,949-26.667c0,0-5,8.333-6.333,18
	c0,0-8.667-6.333-12-1c0,0-17.999-18.333-1.666,13s10.333,1,10.333,1l5.333-4c0,0,4.334,17.333,2.667,22.667
	c0,0,15.666,30,21.333,50.333l-15-9l-1.333-12.333L1392.167,68.5l8.666,22.667c0,0-8.666,4.333-22.666-14l-9,0.333l-15.334-17l-1,9
	c0,0,5.334,5,8.667,8.333s26.666,16.666,5.333,18.333c0,0-6.999,14-19.666-4l6.333,13.667c0,0-26.333-2.667-43-17
	c0,0,9.001,14.667,23.667,18.667c0,0-24,19-40.667,19.667l-20.333-7.333l-3.334-16.333c0,0,8.322-22.597,6.334-30
	c-0.872-3.248-9-10-9-10l-1.667,7.333l5.333,3.667c0,0-7.536,8.287-9,11.667c-4.397,10.153-3.667,22.667,9,43.333
	c0,0,7-1.667-2.333,12.333c0,0,31.333,8,52-11.333l24,12c0,0-6.667-8.333,1.333-10.667s36.666-12,38,3.667c0,0-16.334,1.667-8,6
	s7,6.667,7,6.667s1.667,12-4.333,23c0,0-19.667-9.333-3.667,7.333c0,0,10.667,36.333,16.667,2.667c0,0-10.001-30,9.333-42.333
	c0,0,15,5.667,12.667-11s17.667,17,17.667,17s-4.334,4.333,2.666,11s0,14.667,0,14.667s8.666,7.667,5,16.333
	c0,0-13.667-8.667-7,5.333c0,0,13.667,13.667-10.333,17.667l-8.333-11l-6,19.667c0,0-20,15-15.667,26c0,0-8.333-3.395-8.072,7.336
	c0.011,0.421,0.034,0.865,0.072,1.331l-12.333,10c0,0-7-4-39.667-7c0,0,1.999-27.333-7.667-6l-10,6c0,0-4-13.333-12-13
	s10.667,0.666,9.667-5.667s-10-1.333-10-1.333s-15.333-8,13-7c0,0,11.999-11.667-4.667-12.333c0,0-5.333-1-0.333,6.667
	c0,0-13.001,1.667-27.667-1.333l-5.333,4c0,0,22.666,6,17.333,14.333c0,0-3.333,3,1.667,9s4.334,11-20.333,0c0,0-19.667,4-42.667-11
	s-17.001-6.667-6.667,2c0,0,17.001,14,45.334,20s23,6.333,21,10.333c0,0-0.334,7,9.666-3l6.667,5.667l7.667-3.667
	c0,0,8.667,13.333-6,22.333c0,0-39.667,3.999-23.667,13.333c0,0,16.666-12.667,20.333-2s-38.666,39.334-41.666,39.667
	c0,0-41.001-22.334-39.334-30.667c0,0,1,4.334-4,11.667c0,0,11.668,0.666,17.334,15.333l21.666,18.667c0,0,0-13,13.667-3
	s7.667-15.667,14.667-7.667c0,0,0.666-17.666,11.666-2.333s11.333,6.666,7-8.667l7.667-4.666l7.333-15.334c0,0-1.667,17.666,11,22
	s8-9,6.667-9s7.667-3,7.667-3s1,10.333,9.333,13s-2.333,9.667-2.333,9.667s-27.667,22.667-32.667,32.667s1.333,19.334-13.667,17
	s13-23.334-9-19.334s-7.333,15-7.333,15s-34.667-5.999-56,6.334s-18.999,4.667-14.333-2s-6.667-10.667-6.667-10.667l-2.667,4.667
	c0,0,6,2.667,1,8s-3,8.333-3,8.333s-20.667,21.334-27,24.667l-12.333-8l11-10.334c0,0-11.666-12.332-9.333-17.666s-12-4-12-4
	s15.667,20.666,11,23.666s-10.667,5.334-10.667,5.334l3,11c0,0,11.999-0.668,11.333,2.666s-75.999,32.334-85.666,123.334
	c0,0-6,18.666-5.667,2.333s0.666-53-5.667-48.333s13.001,35.333-8.666,61l-32-5.333c0,0-11,0-24.667,7
	c0,0-24.333,14.333-36.333,3.333s-190-184.333-190-184.333H599.834v-26l-25-31l-16,12.666c0,0-5.666-4.666-3.333-8.333
	s9.333-16-15-16s-191-8-191-8s-7.667,7.001-11,2.667s-9.334-7-13.667,3.333s-4.333-5.334-12,2.333s-9.667-11-27,7.667
	s-16.667,12.333-16.667,12.333s7.333-12.666-57.667,10.667L7.5,358.167z"/>
<path fill="none" stroke="#79BD8F" stroke-width="15" stroke-linecap="round" stroke-linejoin="round" stroke-miterlimit="10" d="
	M1402.167,9.5c0,0,17.334,76.333,44,109.667l19.666,41"/>
<path fill="none" stroke="#79BD8F" stroke-width="15" stroke-linecap="round" stroke-linejoin="round" stroke-miterlimit="10" d="
	M1443.167,287.833c0,0,20.667-12,33-16.667l6.333-72.333c0,0-7.667-26.333-12-31.333"/>
<path fill="none" stroke="#79BD8F" stroke-width="15" stroke-linecap="round" stroke-linejoin="round" stroke-miterlimit="10" d="
	M1435.342,291.47c-30.312,17.839-28.675,16.054-36.744,21.985"/>
<path fill="none" stroke="#79BD8F" stroke-width="15" stroke-linecap="round" stroke-linejoin="round" stroke-miterlimit="10" d="
	M1390.834,319.167c0,0-52.666,51.666-75,97.333"/>
<path fill="none" stroke="#79BD8F" stroke-width="15" stroke-linecap="round" stroke-linejoin="round" stroke-miterlimit="10" d="
	M1313.5,408.167c0,0-49.999-30.333-127.666,27.667"/>
<path fill="none" stroke="#79BD8F" stroke-width="15" stroke-linecap="round" stroke-linejoin="round" stroke-miterlimit="10" d="
	M1178.834,440.167c0,0-27,14.001-44,34.334"/>
<path fill="none" stroke="#BEEB9F" stroke-width="30" stroke-linecap="round" stroke-miterlimit="10" d="M877.575,195.564
	c0,0,47.592-66.282,124.205-63"/>
<path fill="none" stroke="#BEEB9F" stroke-width="30" stroke-linecap="round" stroke-miterlimit="10" d="M877.576,198.564
	c-17.83,3.046,169.65-18.314,224.204,5"/>
<path fill="none" stroke="#BEEB9F" stroke-width="30" stroke-linecap="round" stroke-miterlimit="10" d="M877.576,203.564
	c0,0,73.091,47.436,152.103,48.936"/>
<path fill="none" stroke="#BEEB9F" stroke-width="30" stroke-linecap="round" stroke-miterlimit="10" d="M877.576,198.564
	c0,0,17.762,121.557,259.259,149.621"/>
<path fill="none" stroke="#BEEB9F" stroke-width="30" stroke-linecap="round" stroke-miterlimit="10" d="M653.371,83.564
	c221.204,0,224.205,120,224.205,120s-105.409-24.064-314.205,16"/>
<path fill="none" stroke="#BEEB9F" stroke-width="30" stroke-linecap="round" stroke-miterlimit="10" d="M877.576,198.564
	c0,0-133.001-94.936-384.205-45"/>
<path fill="none" stroke="#BEEB9F" stroke-width="30" stroke-linecap="round" stroke-miterlimit="10" d="M877.576,198.564
	c0,0-91.815,80.905-614.205,94"/>
<g>
	<path fill="#FFFFFF" d="M1029.678,278.271c-14.21,0-25.771-11.561-25.771-25.771s11.562-25.771,25.771-25.771
		s25.771,11.561,25.771,25.771S1043.888,278.271,1029.678,278.271z"/>
	<path fill="#BEEB9F" d="M1029.678,236.729c8.71,0,15.771,7.061,15.771,15.771c0,8.71-7.062,15.771-15.771,15.771
		s-15.771-7.062-15.771-15.771C1013.907,243.79,1020.968,236.729,1029.678,236.729 M1029.678,216.729
		c-19.725,0-35.771,16.047-35.771,35.771s16.047,35.771,35.771,35.771s35.771-16.047,35.771-35.771
		S1049.403,216.729,1029.678,216.729L1029.678,216.729z"/>
</g>
<g>
	<path fill="#FFFFFF" d="M563.371,245.107c-14.21,0-25.771-11.561-25.771-25.771s11.561-25.771,25.771-25.771
		s25.771,11.561,25.771,25.771S577.581,245.107,563.371,245.107z"/>
	<path fill="#BEEB9F" d="M563.371,203.564c8.708,0,15.771,7.061,15.771,15.771c0,8.71-7.062,15.771-15.771,15.771
		s-15.771-7.061-15.771-15.771S554.661,203.564,563.371,203.564 M563.371,183.564c-19.725,0-35.771,16.047-35.771,35.771
		s16.047,35.771,35.771,35.771s35.771-16.047,35.771-35.771S583.095,183.564,563.371,183.564L563.371,183.564z"/>
</g>
<g>
	<path fill="#FFFFFF" d="M263.371,318.336c-14.21,0-25.771-11.561-25.771-25.771c0-14.211,11.561-25.772,25.771-25.772
		s25.771,11.561,25.771,25.772C289.142,306.775,277.581,318.336,263.371,318.336z"/>
	<path fill="#BEEB9F" d="M263.371,276.793c8.71,0,15.771,7.061,15.771,15.772c0,8.71-7.062,15.771-15.771,15.771
		s-15.771-7.061-15.771-15.771C247.599,283.854,254.661,276.793,263.371,276.793 M263.371,256.793
		c-19.725,0-35.771,16.047-35.771,35.772c0,19.724,16.047,35.771,35.771,35.771s35.771-16.047,35.771-35.771
		C299.142,272.84,283.095,256.793,263.371,256.793L263.371,256.793z"/>
</g>
<g>
	<path fill="#FFFFFF" d="M653.678,109.336c-14.21,0-25.771-11.561-25.771-25.771s11.561-25.771,25.771-25.771
		s25.771,11.561,25.771,25.771S667.889,109.336,653.678,109.336z"/>
	<path fill="#BEEB9F" d="M653.678,67.793c8.71,0,15.771,7.061,15.771,15.771s-7.062,15.771-15.771,15.771
		s-15.771-7.061-15.771-15.771S644.968,67.793,653.678,67.793 M653.678,47.793c-19.725,0-35.771,16.047-35.771,35.771
		s16.047,35.771,35.771,35.771s35.771-16.047,35.771-35.771S673.403,47.793,653.678,47.793L653.678,47.793z"/>
</g>
<g>
	<path fill="#FFFFFF" d="M1136.834,373.957c-14.21,0-25.771-11.562-25.771-25.771s11.562-25.771,25.771-25.771
		s25.771,11.562,25.771,25.771S1151.044,373.957,1136.834,373.957z"/>
	<path fill="#BEEB9F" d="M1136.834,332.414c8.71,0,15.771,7.061,15.771,15.771s-7.062,15.771-15.771,15.771
		s-15.771-7.061-15.771-15.771S1128.125,332.414,1136.834,332.414 M1136.834,312.414c-19.725,0-35.771,16.047-35.771,35.771
		s16.047,35.771,35.771,35.771s35.771-16.047,35.771-35.771S1156.559,312.414,1136.834,312.414L1136.834,312.414z"/>
</g>
<g>
	<path fill="#FFFFFF" d="M1101.78,229.336c-14.21,0-25.771-11.561-25.771-25.771s11.562-25.771,25.771-25.771
		s25.771,11.561,25.771,25.771S1115.99,229.336,1101.78,229.336z"/>
	<path fill="#BEEB9F" d="M1101.78,187.793c8.71,0,15.771,7.061,15.771,15.771s-7.062,15.771-15.771,15.771
		s-15.771-7.061-15.771-15.771S1093.07,187.793,1101.78,187.793 M1101.78,167.793c-19.725,0-35.771,16.047-35.771,35.771
		s16.047,35.771,35.771,35.771s35.771-16.047,35.771-35.771S1121.504,167.793,1101.78,167.793L1101.78,167.793z"/>
</g>
<g>
	<path fill="#FFFFFF" d="M1001.78,161.629c-14.21,0-25.771-11.561-25.771-25.771s11.562-25.771,25.771-25.771
		s25.771,11.561,25.771,25.771S1015.99,161.629,1001.78,161.629z"/>
	<path fill="#BEEB9F" d="M1001.78,120.086c8.71,0,15.771,7.061,15.771,15.771s-7.062,15.771-15.771,15.771
		s-15.771-7.061-15.771-15.771S993.07,120.086,1001.78,120.086 M1001.78,100.086c-19.725,0-35.771,16.047-35.771,35.771
		s16.047,35.771,35.771,35.771s35.771-16.047,35.771-35.771S1021.504,100.086,1001.78,100.086L1001.78,100.086z"/>
</g>
<g>
	<path fill="#FFFFFF" d="M493.371,180.593c-14.21,0-25.771-11.561-25.771-25.771s11.561-25.771,25.771-25.771
		s25.771,11.561,25.771,25.771S507.581,180.593,493.371,180.593z"/>
	<path fill="#BEEB9F" d="M493.371,139.05c8.71,0,15.771,7.061,15.771,15.771s-7.062,15.771-15.771,15.771
		s-15.771-7.061-15.771-15.771S484.661,139.05,493.371,139.05 M493.371,119.05c-19.725,0-35.771,16.047-35.771,35.771
		s16.047,35.771,35.771,35.771s35.771-16.047,35.771-35.771S513.095,119.05,493.371,119.05L493.371,119.05z"/>
</g>
<circle fill="#FFFFFF" stroke="#BEEB9F" stroke-width="25" stroke-miterlimit="10" cx="877.576" cy="198.564" r="62.707"/>
<path fill="#79BD8F" stroke="#FFFFFF" stroke-miterlimit="10" d="M877.58,159.167c7.237,0,13.003,23.476,13.003,23.476
	s22.657-2.827,24.893,4.057c2.237,6.884-17.363,18.074-17.363,18.074s8.743,22.222,2.889,26.476
	c-5.855,4.254-23.421-11.902-23.421-11.902s-17.566,16.156-23.421,11.902c-5.854-4.254,1.889-26.476,1.889-26.476
	s-18.601-11.19-16.364-18.074s24.894-4.057,24.894-4.057S870.342,159.167,877.58,159.167z"/>
</svg>
