<?xml version="1.0" encoding="utf-8"?>
<!-- Generator: Adobe Illustrator 15.0.0, SVG Export Plug-In . SVG Version: 6.00 Build 0)  -->
<!DOCTYPE svg PUBLIC "-//W3C//DTD SVG 1.1//EN" "http://www.w3.org/Graphics/SVG/1.1/DTD/svg11.dtd">
<svg version="1.1" id="Layer_1" xmlns="http://www.w3.org/2000/svg" xmlns:xlink="http://www.w3.org/1999/xlink" x="0px" y="0px"
	 width="684px" height="401.476px" viewBox="0 0 684 401.476" enable-background="new 0 0 684 401.476" xml:space="preserve">
<path display="none" fill="#BEEB9F" d="M488.325,235.975c-0.315,0-0.632-0.011-0.95-0.029c-8.268-0.518-14.552-7.639-14.035-15.906
	c0.024-0.459,2.372-51.854-36.468-92.884c-33.823-35.731-88.418-53.849-162.268-53.849c-8.284,0-15-6.716-15-15
	c0-8.284,6.716-15,15-15c82.716,0,144.782,21.421,184.473,63.669c47.634,50.703,44.366,112.335,44.204,114.935
	C502.784,229.857,496.182,235.975,488.325,235.975z"/>
<path display="none" fill="#BEEB9F" d="M61.005,235.975c-7.896,0-14.511-6.17-14.962-14.154
	c-0.146-2.573-3.02-63.624,44.406-113.806c39.48-41.775,100.94-62.958,182.675-62.958c8.284,0,15,6.716,15,15
	c0,8.284-6.716,15-15,15c-73.157,0-127.282,18.021-160.871,53.563c-38.646,40.893-36.286,91.006-36.257,91.508
	c0.468,8.271-5.858,15.355-14.129,15.823C61.577,235.966,61.29,235.975,61.005,235.975z"/>
<path display="none" fill="#BEEB9F" d="M274.604,235.87c-8.284,0-15-6.716-15-15V39.181c0-8.284,6.716-15,15-15s15,6.716,15,15
	V220.87C289.604,229.154,282.889,235.87,274.604,235.87z"/>
<path display="none" fill="#FFFFFF" d="M274.946,104.901c-24.222,0-43.928-19.706-43.928-43.928
	c0-24.222,19.706-43.928,43.928-43.928c24.222,0,43.928,19.706,43.928,43.928C318.874,85.195,299.168,104.901,274.946,104.901z"/>
<path display="none" fill="#BEEB9F" d="M274.946,34.09c14.845,0,26.883,12.036,26.883,26.883c0,14.847-12.038,26.883-26.883,26.883
	c-14.848,0-26.883-12.036-26.883-26.883C248.063,46.126,260.099,34.09,274.946,34.09 M274.946,0
	c-33.621,0-60.973,27.353-60.973,60.973c0,33.62,27.353,60.973,60.973,60.973c33.621,0,60.974-27.353,60.974-60.973
	C335.92,27.353,308.567,0,274.946,0L274.946,0z"/>
<path display="none" fill="#BEEB9F" d="M59.976,250.613c-4.467,0-8.886-1.986-11.844-5.783c-5.09-6.536-3.919-15.961,2.617-21.053
	l27.959-21.776c6.534-5.091,15.959-3.92,21.051,2.616c5.09,6.535,3.919,15.961-2.617,21.052l-27.959,21.776
	C66.445,249.579,63.198,250.613,59.976,250.613z"/>
<path display="none" fill="#BEEB9F" d="M59.915,250.613c-3.223,0-6.468-1.033-9.208-3.168l-27.958-21.776
	c-6.535-5.091-7.707-14.517-2.616-21.052c5.091-6.534,14.516-7.706,21.051-2.616l27.958,21.776
	c6.535,5.092,7.707,14.517,2.616,21.053C68.801,248.626,64.38,250.613,59.915,250.613z"/>
<path display="none" fill="#BEEB9F" d="M274.636,250.613c-4.468,0-8.887-1.986-11.845-5.783c-5.09-6.536-3.919-15.961,2.616-21.053
	l27.959-21.776c6.538-5.09,15.961-3.918,21.052,2.616c5.091,6.535,3.919,15.961-2.616,21.052l-27.959,21.776
	C281.104,249.579,277.857,250.613,274.636,250.613z"/>
<path display="none" fill="#BEEB9F" d="M274.573,250.613c-3.222,0-6.468-1.034-9.207-3.168l-27.958-21.776
	c-6.536-5.091-7.707-14.517-2.617-21.052c5.092-6.535,14.517-7.705,21.051-2.616l27.959,21.776
	c6.535,5.092,7.707,14.517,2.616,21.053C283.461,248.627,279.04,250.613,274.573,250.613z"/>
<path display="none" fill="#BEEB9F" d="M488.955,250.613c-4.468,0-8.887-1.986-11.845-5.783c-5.092-6.536-3.919-15.961,2.615-21.053
	l27.959-21.776c6.539-5.09,15.962-3.918,21.053,2.616c5.091,6.535,3.919,15.961-2.616,21.052l-27.959,21.776
	C495.423,249.579,492.177,250.613,488.955,250.613z"/>
<path display="none" fill="#BEEB9F" d="M488.893,250.613c-3.222,0-6.468-1.034-9.207-3.168l-27.959-21.776
	c-6.534-5.091-7.707-14.517-2.615-21.052c5.09-6.536,14.515-7.707,21.052-2.616l27.959,21.776
	c6.535,5.092,7.707,14.517,2.616,21.053C497.78,248.627,493.359,250.613,488.893,250.613z"/>
<rect x="15.5" y="24.476" fill="#FFFFFF" width="487" height="249"/>
<path fill="#BEEB9F" d="M485,44.085v210.781H30V44.085H485 M503,10.892H12c-6.627,0-12,5.944-12,13.277v250.613
	c0,7.332,5.373,13.276,12,13.276h491c6.627,0,12-5.944,12-13.276V24.169C515,16.836,509.627,10.892,503,10.892L503,10.892z"/>
<path fill="#BEEB9F" d="M244.082,108.559H60.583c-4.142,0-7.5-3.358-7.5-7.5s3.358-7.5,7.5-7.5h183.499c4.143,0,7.5,3.358,7.5,7.5
	S248.225,108.559,244.082,108.559z"/>
<path fill="#BEEB9F" d="M243.499,229.727H60c-4.142,0-7.5-3.357-7.5-7.5c0-4.144,3.358-7.5,7.5-7.5h183.499
	c4.143,0,7.5,3.356,7.5,7.5C250.999,226.369,247.642,229.727,243.499,229.727z"/>
<path fill="#BEEB9F" d="M456.374,229.727H272.875c-4.143,0-7.5-3.357-7.5-7.5c0-4.144,3.357-7.5,7.5-7.5h183.499
	c4.143,0,7.5,3.356,7.5,7.5C463.874,226.369,460.517,229.727,456.374,229.727z"/>
<path fill="#BEEB9F" d="M456.958,170.642H273.459c-4.143,0-7.5-3.357-7.5-7.5c0-4.142,3.357-7.5,7.5-7.5h183.499
	c4.143,0,7.5,3.358,7.5,7.5S461.101,170.642,456.958,170.642z"/>
<line fill="none" stroke="#BEEB9F" stroke-width="10" stroke-miterlimit="10" x1="60" y1="131.351" x2="243.499" y2="131.351"/>
<line fill="none" stroke="#BEEB9F" stroke-width="10" stroke-miterlimit="10" x1="60" y1="161.643" x2="203.499" y2="161.643"/>
<line fill="none" stroke="#BEEB9F" stroke-width="10" stroke-miterlimit="10" x1="60" y1="191.934" x2="223.499" y2="191.934"/>
<line fill="none" stroke="#BEEB9F" stroke-width="10" stroke-miterlimit="10" x1="272.876" y1="73.976" x2="432.5" y2="73.976"/>
<line fill="none" stroke="#BEEB9F" stroke-width="10" stroke-miterlimit="10" x1="272.876" y1="104.851" x2="455" y2="104.851"/>
<line fill="none" stroke="#BEEB9F" stroke-width="10" stroke-miterlimit="10" x1="272.876" y1="135.726" x2="387.25" y2="135.726"/>
<line fill="none" stroke="#79BD8F" stroke-width="10" stroke-miterlimit="10" x1="272.875" y1="192.726" x2="311.6" y2="192.726"/>
<line fill="none" stroke="#79BD8F" stroke-width="10" stroke-miterlimit="10" x1="335.264" y1="192.726" x2="373.988" y2="192.726"/>
<line fill="none" stroke="#79BD8F" stroke-width="10" stroke-miterlimit="10" x1="396.914" y1="192.726" x2="455" y2="192.726"/>
<circle fill="#79BD8F" cx="324" cy="192.726" r="2.25"/>
<circle fill="#79BD8F" cx="385" cy="192.726" r="2.25"/>
<rect x="60.417" y="66.476" fill="#79BD8F" width="54" height="15"/>
<circle fill="#79BD8F" cx="153.084" cy="73.976" r="8"/>
<circle fill="#79BD8F" cx="129.75" cy="73.976" r="8"/>
<g id="Magnifying_circle_1_">
	<path fill="#FFFFFF" d="M450.75,384.497c-72.975,0-132.344-59.369-132.344-132.345c0-72.974,59.369-132.342,132.344-132.342
		s132.344,59.369,132.344,132.342C583.094,325.127,523.725,384.497,450.75,384.497z"/>
	<path fill="#FFFFFF" d="M450.75,136.216c30.968,0,60.083,12.06,81.98,33.958c21.896,21.897,33.957,51.012,33.957,81.979
		c0,30.968-12.061,60.083-33.957,81.98c-21.898,21.897-51.014,33.957-81.98,33.957s-60.082-12.06-81.979-33.957
		c-21.898-21.897-33.958-51.013-33.958-81.98c0-30.967,12.06-60.082,33.958-81.979C390.668,148.276,419.782,136.216,450.75,136.216
		 M450.75,103.404c-82.15,0-148.75,66.597-148.75,148.75c0,82.152,66.6,148.75,148.75,148.75c82.152,0,148.75-66.599,148.75-148.75
		C599.5,170.002,532.902,103.404,450.75,103.404L450.75,103.404z"/>
</g>
<rect x="375.523" y="244.167" fill="#79BD8F" width="66.294" height="17.119"/>
<rect x="482.328" y="244.167" fill="#79BD8F" width="66.295" height="17.119"/>
<circle fill="#79BD8F" cx="463.046" cy="252.726" r="3.852"/>
<circle fill="#79BD8F" cx="567.474" cy="252.726" r="3.852"/>
<path fill="#BEEB9F" d="M569.661,316.067H375.523c-7.092,0-12.84-5.748-12.84-12.841c0-7.092,5.748-12.84,12.84-12.84h194.138
	c7.092,0,12.84,5.748,12.84,12.84C582.501,310.319,576.753,316.067,569.661,316.067z"/>
<path fill="#BEEB9F" d="M567.661,214.919H376.523c-7.092,0-12.84-5.746-12.84-12.838s5.748-12.84,12.84-12.84h191.138
	c7.092,0,12.839,5.748,12.839,12.84S574.753,214.919,567.661,214.919z"/>
<g id="Magnifying_circle_overlay_2_">
	<path fill="#79BD8F" d="M450.75,133.976c31.719,0,61.54,12.352,83.969,34.781c22.43,22.429,34.781,52.25,34.781,83.97
		c0,31.719-12.354,61.538-34.781,83.969c-22.429,22.429-52.25,34.78-83.969,34.78s-61.539-12.353-83.968-34.781
		C344.354,314.265,332,284.443,332,252.727c0-31.719,12.354-61.541,34.781-83.97C389.211,146.328,419.031,133.976,450.75,133.976
		 M450.75,103.976c-82.15,0-148.75,66.598-148.75,148.75c0,82.149,66.6,148.749,148.75,148.749c82.152,0,148.75-66.6,148.75-148.749
		C599.5,170.573,532.902,103.976,450.75,103.976L450.75,103.976z"/>
</g>
<rect id="Measurement_1_" x="227.501" y="168.476" display="none" fill="#ED1C24" width="116.999" height="30"/>
</svg>
