<?xml version="1.0" encoding="utf-8"?>
<!-- Generator: Adobe Illustrator 15.0.0, SVG Export Plug-In  -->
<!DOCTYPE svg PUBLIC "-//W3C//DTD SVG 1.1//EN" "http://www.w3.org/Graphics/SVG/1.1/DTD/svg11.dtd" [
	<!ENTITY ns_flows "http://ns.adobe.com/Flows/1.0/">
]>
<svg version="1.1"
	 xmlns="http://www.w3.org/2000/svg" xmlns:xlink="http://www.w3.org/1999/xlink" xmlns:a="http://ns.adobe.com/AdobeSVGViewerExtensions/3.0/"
	 x="0px" y="0px" width="432px" height="432px" viewBox="-0.532 0 432 432" enable-background="new -0.532 0 432 432"
	 xml:space="preserve">
<defs>
</defs>
<g id="Circle_base_2_">
	<path fill="#FF6138" d="M216,15c27.142,0,53.463,5.313,78.233,15.79c23.934,10.123,45.431,24.618,63.895,43.082
		c18.465,18.464,32.96,39.962,43.083,63.895C411.688,162.537,417,188.858,417,216s-5.313,53.463-15.789,78.233
		c-10.123,23.933-24.618,45.431-43.083,63.895c-18.464,18.464-39.961,32.959-63.895,43.082C269.463,411.688,243.142,417,216,417
		s-53.463-5.313-78.233-15.79c-23.934-10.123-45.431-24.618-63.896-43.082c-18.464-18.464-32.959-39.961-43.082-63.895
		C20.313,269.463,15,243.142,15,216s5.313-53.463,15.789-78.233c10.123-23.934,24.618-45.431,43.082-63.895
		c18.465-18.464,39.962-32.959,63.896-43.082C162.537,20.313,188.858,15,216,15 M216,0C96.706,0,0,96.707,0,216s96.706,216,216,216
		c119.293,0,216-96.707,216-216S335.293,0,216,0L216,0z"/>
</g>
<g>
	<path fill="#FF6138" d="M215.574,122.62c7.292,0,14.182,1.427,20.677,4.27c6.491,2.847,12.139,6.669,16.942,11.472
		c4.802,4.803,8.579,10.452,11.339,16.942c2.756,6.494,4.135,13.386,4.135,20.676c0,12.807-2.4,23.257-7.204,31.349
		c-4.802,8.096-12.718,14.899-23.744,20.41c-1.78,0.893-3.248,2.227-4.403,4.002c-1.156,1.78-2.046,3.693-2.666,5.736
		c-0.626,2.047-1.067,4.047-1.337,6.003c-0.265,1.959-0.397,3.469-0.397,4.536c0,3.56-1.333,6.669-4.002,9.337
		c-2.67,2.668-5.781,4.003-9.339,4.003c-3.559,0-6.67-1.334-9.338-4.003c-2.668-2.667-4.003-5.777-4.003-9.337
		c0-0.709,0.134-2.89,0.402-6.538c0.267-3.643,1.154-7.778,2.668-12.406c1.509-4.623,3.867-9.246,7.07-13.874
		c3.2-4.622,7.736-8.357,13.605-11.205h-0.267c3.022-1.601,5.603-3.156,7.735-4.67c2.137-1.508,3.869-3.289,5.205-5.335
		c1.333-2.043,2.268-4.49,2.799-7.337c0.536-2.843,0.803-6.403,0.803-10.672c0-3.736-0.714-7.203-2.135-10.406
		c-1.426-3.2-3.336-6.002-5.737-8.404c-2.398-2.401-5.202-4.31-8.403-5.736c-3.2-1.421-6.67-2.134-10.405-2.134
		s-7.247,0.713-10.538,2.134c-3.294,1.426-6.138,3.335-8.537,5.736c-2.401,2.402-4.27,5.204-5.604,8.404
		c-1.334,3.203-2,6.67-2,10.406c0,3.735-1.335,6.896-4.003,9.472c-2.669,2.581-5.869,3.869-9.604,3.869
		c-3.562,0-6.63-1.288-9.206-3.869c-2.579-2.576-3.868-5.736-3.868-9.472c0-7.291,1.375-14.182,4.136-20.676
		c2.757-6.491,6.536-12.139,11.338-16.942c4.804-4.803,10.447-8.625,16.941-11.472C201.12,124.047,208.103,122.62,215.574,122.62
		 M215.574,282.7c3.558,0,6.669,1.333,9.339,4.002c2.669,2.667,4.002,5.87,4.002,9.604c0,3.561-1.333,6.629-4.002,9.205
		c-2.67,2.581-5.781,3.869-9.339,3.869c-3.559,0-6.67-1.288-9.338-3.869c-2.668-2.575-4.003-5.644-4.003-9.205
		c0-3.734,1.335-6.937,4.003-9.604C208.904,284.033,212.016,282.7,215.574,282.7 M215.574,107.884
		c-9.478,0-18.514,1.853-26.857,5.508c-8.15,3.573-15.365,8.468-21.447,14.548c-6.124,6.125-10.995,13.393-14.482,21.603
		c-3.521,8.285-5.308,17.181-5.308,26.437c0,7.665,2.832,14.545,8.189,19.897c5.336,5.346,12.126,8.179,19.62,8.179
		c7.563,0,14.426-2.77,19.847-8.011c5.556-5.364,8.496-12.305,8.496-20.065c0-1.789,0.283-3.339,0.867-4.74
		c0.59-1.417,1.383-2.613,2.421-3.651c1.082-1.083,2.381-1.943,3.972-2.632c1.431-0.618,2.967-0.921,4.683-0.921
		c1.665,0,3.112,0.283,4.424,0.866c1.546,0.689,2.847,1.569,3.96,2.683c1.125,1.125,2.008,2.428,2.701,3.986
		c0.576,1.296,0.859,2.745,0.859,4.409c0,4.164-0.297,6.617-0.547,7.941c-0.237,1.273-0.54,1.833-0.659,2.016
		c-0.315,0.482-0.762,0.924-1.362,1.349c-1.621,1.15-3.675,2.383-6.136,3.687c-0.506,0.268-0.992,0.563-1.455,0.881
		c-7.133,3.835-12.878,8.857-17.101,14.957c-4.007,5.789-7.021,11.74-8.964,17.69c-1.899,5.806-2.998,11.01-3.355,15.902
		c-0.408,5.536-0.442,6.797-0.442,7.613c0,7.483,2.877,14.316,8.32,19.758c1.659,1.659,3.447,3.08,5.344,4.253
		c-1.896,1.174-3.687,2.595-5.346,4.255c-5.441,5.44-8.318,12.365-8.318,20.023c0,7.587,2.941,14.437,8.505,19.807
		c5.408,5.231,12.18,8.002,19.572,8.002c7.389,0,14.16-2.77,19.581-8.01c5.555-5.359,8.496-12.209,8.496-19.799
		c0-7.662-2.878-14.586-8.321-20.027c-1.659-1.658-3.447-3.078-5.344-4.251c1.896-1.173,3.685-2.593,5.344-4.251
		c5.443-5.44,8.321-12.273,8.321-19.76c0-0.015,0.012-0.691,0.265-2.563c0.159-1.155,0.438-2.402,0.825-3.667
		c0.148-0.49,0.33-0.939,0.552-1.365c13.043-6.696,22.75-15.299,28.845-25.575c6.146-10.355,9.266-23.433,9.266-38.866
		c0-9.243-1.785-18.137-5.306-26.433c-3.496-8.221-8.367-15.487-14.482-21.604c-6.082-6.08-13.296-10.974-21.445-14.549
		C233.813,109.737,224.868,107.884,215.574,107.884L215.574,107.884z"/>
</g>
</svg>
