<?xml version="1.0" encoding="utf-8"?>
<!-- Generator: Adobe Illustrator 15.0.0, SVG Export Plug-In  -->
<!DOCTYPE svg PUBLIC "-//W3C//DTD SVG 1.1//EN" "http://www.w3.org/Graphics/SVG/1.1/DTD/svg11.dtd" [
	<!ENTITY ns_flows "http://ns.adobe.com/Flows/1.0/">
]>
<svg version="1.1"
	 xmlns="http://www.w3.org/2000/svg" xmlns:xlink="http://www.w3.org/1999/xlink" xmlns:a="http://ns.adobe.com/AdobeSVGViewerExtensions/3.0/"
	 x="0px" y="0px" width="432px" height="432px" viewBox="0 -0.5 432 432" enable-background="new 0 -0.5 432 432"
	 xml:space="preserve">
<defs>
</defs>
<g id="Circle_5_">
	<path fill="#FF6138" d="M216,15c27.142,0,53.463,5.313,78.233,15.79c23.934,10.123,45.431,24.618,63.895,43.082
		c18.465,18.464,32.96,39.961,43.083,63.895C411.688,162.537,417,188.858,417,216s-5.313,53.464-15.789,78.234
		c-10.123,23.933-24.618,45.431-43.083,63.895c-18.464,18.464-39.961,32.959-63.895,43.082C269.463,411.688,243.142,417,216,417
		s-53.463-5.313-78.233-15.789c-23.934-10.123-45.431-24.618-63.895-43.082c-18.465-18.464-32.96-39.962-43.083-63.895
		C20.313,269.464,15,243.142,15,216s5.313-53.463,15.789-78.233c10.123-23.934,24.618-45.431,43.083-63.895
		c18.464-18.464,39.961-32.959,63.895-43.082C162.537,20.313,188.858,15,216,15 M216,0C96.707,0,0,96.707,0,216
		c0,119.295,96.707,216,216,216s216-96.705,216-216C432,96.707,335.293,0,216,0L216,0z"/>
</g>
<g>
	<path fill="#FF6138" d="M216,181c19.299,0,35,15.701,35,35s-15.701,35-35,35s-35-15.701-35-35S196.701,181,216,181 M216,166
		c-27.614,0-50,22.385-50,50c0,27.613,22.386,50,50,50c27.613,0,50-22.387,50-50C266,188.386,243.613,166,216,166L216,166z"/>
</g>
<path fill="none" stroke="#FF6138" stroke-width="15" stroke-linecap="round" stroke-linejoin="round" stroke-miterlimit="10" d="
	M311.515,236.348c7.406-7.406,7.406-34.492,0-41.898c-3.33-3.33-18.836,0-18.836,0c-1.778-6.524-4.362-12.715-7.646-18.456
	c0,0,13.319-8.611,13.319-13.321c0-10.475-19.151-29.626-29.626-29.627c-4.71,0-13.322,13.322-13.322,13.322
	c-5.74-3.284-11.93-5.869-18.455-7.647c0,0,3.33-15.507,0-18.836c-7.406-7.408-34.492-7.408-41.898,0c-3.33,3.329,0,18.836,0,18.836
	c-6.525,1.778-12.715,4.363-18.456,7.647c0,0-8.611-13.322-13.321-13.321c-10.475,0-29.626,19.152-29.626,29.626
	c0,4.709,13.319,13.321,13.319,13.321c-3.283,5.741-5.867,11.932-7.646,18.456c0,0-15.506-3.33-18.836,0
	c-7.406,7.406-7.406,34.492,0,41.898c3.33,3.33,18.835,0,18.835,0c1.779,6.525,4.363,12.715,7.646,18.456
	c0,0-13.319,8.611-13.319,13.321c0.001,10.474,19.152,29.625,29.626,29.626c4.71,0,13.321-13.32,13.321-13.32
	c5.741,3.284,11.931,5.868,18.456,7.647c0,0-3.33,15.505,0,18.835c7.406,7.406,34.492,7.406,41.898,0c3.33-3.33,0-18.835,0-18.835
	c6.525-1.779,12.715-4.363,18.456-7.647c0,0,8.611,13.32,13.321,13.32c10.473-0.001,29.626-19.152,29.626-29.626
	c0-4.71-13.319-13.321-13.319-13.321c3.283-5.741,5.867-11.931,7.646-18.456C292.68,236.348,308.185,239.678,311.515,236.348z"/>
</svg>
