<?xml version="1.0" encoding="utf-8"?>
<!-- Generator: Adobe Illustrator 15.0.0, SVG Export Plug-In  -->
<!DOCTYPE svg PUBLIC "-//W3C//DTD SVG 1.1//EN" "http://www.w3.org/Graphics/SVG/1.1/DTD/svg11.dtd" [
	<!ENTITY ns_flows "http://ns.adobe.com/Flows/1.0/">
]>
<svg version="1.1"
	 xmlns="http://www.w3.org/2000/svg" xmlns:xlink="http://www.w3.org/1999/xlink" xmlns:a="http://ns.adobe.com/AdobeSVGViewerExtensions/3.0/"
	 x="0px" y="0px" width="432px" height="432px" viewBox="0 0 432 432" style="enable-background:new 0 0 432 432;"
	 xml:space="preserve">
<defs>
</defs>
<g id="Circle_base_1_">
	<path style="fill:#FF6138;" d="M216,13.333c27.365,0,53.905,5.356,78.883,15.921c24.132,10.207,45.807,24.822,64.424,43.438
		c18.617,18.617,33.232,40.292,43.438,64.424c10.565,24.977,15.922,51.517,15.922,78.883s-5.356,53.906-15.922,78.883
		c-10.206,24.132-24.821,45.807-43.438,64.424c-18.617,18.617-40.292,33.231-64.424,43.438
		c-24.978,10.564-51.518,15.921-78.883,15.921c-27.366,0-53.906-5.356-78.883-15.921c-24.132-10.207-45.807-24.822-64.424-43.438
		c-18.617-18.617-33.231-40.292-43.438-64.424C18.69,269.906,13.333,243.366,13.333,216s5.356-53.906,15.921-78.883
		c10.207-24.132,24.822-45.807,43.438-64.424c18.617-18.617,40.292-33.231,64.424-43.438C162.094,18.69,188.634,13.333,216,13.333
		 M216,0C96.707,0,0,96.707,0,216s96.707,216,216,216c119.293,0,216-96.707,216-216S335.293,0,216,0L216,0z"/>
</g>
<path style="fill:#FF6138;" d="M296.693,281.999H175.053h-4.18l-3.6,2.125l-22.148,13.07v-15.195h-15.307h-23.987V139.226h45.053
	v-15.307H105.58c-8.314,0-15.054,6.74-15.054,15.054v143.278c0,8.314,6.74,15.054,15.054,15.054h24.239V324l45.234-26.694h121.893
	c8.313,0,15.055-6.74,15.055-15.054V236.93h-15.307V281.999z"/>
<path id="Top_speech_bubble_2_" style="fill:#FF6138;" d="M326.809,123.96v97.663h-96.02h-4.01l-3.494,1.966l-26.796,15.073v-1.732
	v-15.307h-15.307h-14.991V123.96H326.809 M330.667,108.654H162.333c-6.322,0-11.448,5.125-11.448,11.448v105.38
	c0,6.322,5.126,11.448,11.448,11.448h18.85v27.904l49.606-27.904h99.878c6.321,0,11.448-5.125,11.448-11.448v-105.38
	C342.115,113.779,336.988,108.654,330.667,108.654L330.667,108.654z"/>
</svg>
