<?xml version="1.0" encoding="utf-8"?>
<!-- Generator: Adobe Illustrator 15.0.0, SVG Export Plug-In  -->
<!DOCTYPE svg PUBLIC "-//W3C//DTD SVG 1.1//EN" "http://www.w3.org/Graphics/SVG/1.1/DTD/svg11.dtd" [
	<!ENTITY ns_flows "http://ns.adobe.com/Flows/1.0/">
]>
<svg version="1.1"
	 xmlns="http://www.w3.org/2000/svg" xmlns:xlink="http://www.w3.org/1999/xlink" xmlns:a="http://ns.adobe.com/AdobeSVGViewerExtensions/3.0/"
	 x="0px" y="0px" width="432px" height="432px" viewBox="-0.532 0 432 432" enable-background="new -0.532 0 432 432"
	 xml:space="preserve">
<defs>
</defs>
<g id="Circle_5_">
	<path fill="#FF6138" d="M216,15c27.142,0,53.463,5.313,78.233,15.789c23.934,10.123,45.431,24.618,63.895,43.082
		c18.465,18.464,32.96,39.962,43.083,63.895C411.688,162.536,417,188.858,417,216s-5.313,53.464-15.789,78.234
		c-10.123,23.933-24.618,45.431-43.083,63.895c-18.464,18.464-39.961,32.959-63.895,43.082C269.463,411.688,243.142,417,216,417
		s-53.463-5.313-78.233-15.789c-23.934-10.123-45.431-24.618-63.896-43.082c-18.464-18.464-32.959-39.961-43.082-63.895
		C20.313,269.464,15,243.142,15,216s5.313-53.464,15.789-78.234c10.123-23.934,24.618-45.431,43.082-63.895
		c18.465-18.464,39.962-32.959,63.896-43.082C162.537,20.313,188.858,15,216,15 M216,0C96.706,0,0,96.705,0,216s96.706,216,216,216
		c119.293,0,216-96.705,216-216S335.293,0,216,0L216,0z"/>
</g>
<g>
	<path fill="#FF6138" d="M216,131c19.299,0,35,15.701,35,35s-15.701,35-35,35s-35-15.701-35-35S196.701,131,216,131 M216,116
		c-27.614,0-50,22.386-50,50c0,27.613,22.386,50,50,50c27.613,0,50-22.387,50-50C266,138.386,243.613,116,216,116L216,116z"/>
</g>
<g>
	<path fill="#FF6138" d="M143.468,243.195c19.299,0,35,15.701,35,35s-15.701,35-35,35s-35-15.701-35-35
		S124.169,243.195,143.468,243.195 M143.468,228.195c-27.614,0-50,22.386-50,50c0,27.613,22.386,50,50,50c27.613,0,50-22.387,50-50
		C193.468,250.581,171.081,228.195,143.468,228.195L143.468,228.195z"/>
</g>
<path fill="#FF6138" d="M182.869,203.433l-18.863,29.179c4.612,2.081,8.853,4.838,12.593,8.151l18.863-29.179
	C190.849,209.503,186.609,206.746,182.869,203.433z"/>
<g>
	<path fill="#FF6138" d="M295.468,243.195c19.299,0,35,15.701,35,35s-15.701,35-35,35s-35-15.701-35-35
		S276.169,243.195,295.468,243.195 M295.468,228.195c-27.614,0-50,22.386-50,50c0,27.613,22.386,50,50,50c27.613,0,50-22.387,50-50
		C345.468,250.581,323.081,228.195,295.468,228.195L295.468,228.195z"/>
</g>
<path fill="#FF6138" d="M273.017,233.522l-22.332-31.528c-3.602,3.472-7.721,6.406-12.233,8.679l22.331,31.528
	C264.385,238.729,268.504,235.795,273.017,233.522z"/>
</svg>
