<?xml version="1.0" encoding="utf-8"?>
<!-- Generator: Adobe Illustrator 15.0.0, SVG Export Plug-In  -->
<!DOCTYPE svg PUBLIC "-//W3C//DTD SVG 1.1//EN" "http://www.w3.org/Graphics/SVG/1.1/DTD/svg11.dtd" [
	<!ENTITY ns_flows "http://ns.adobe.com/Flows/1.0/">
]>
<svg version="1.1"
	 xmlns="http://www.w3.org/2000/svg" xmlns:xlink="http://www.w3.org/1999/xlink" xmlns:a="http://ns.adobe.com/AdobeSVGViewerExtensions/3.0/"
	 x="0px" y="0px" width="432px" height="432px" viewBox="0 0 432 432" style="enable-background:new 0 0 432 432;"
	 xml:space="preserve">
<defs>
</defs>
<g id="Circle_3_">
	<path style="fill:#FF6138;" d="M216,13.333c27.365,0,53.905,5.357,78.883,15.921c24.132,10.207,45.808,24.821,64.424,43.438
		c18.617,18.617,33.232,40.292,43.438,64.424c10.565,24.978,15.922,51.518,15.922,78.884s-5.356,53.906-15.922,78.884
		c-10.206,24.132-24.821,45.807-43.438,64.424c-18.616,18.617-40.292,33.231-64.424,43.438
		c-24.978,10.563-51.518,15.921-78.883,15.921c-27.366,0-53.906-5.357-78.883-15.921c-24.132-10.207-45.808-24.821-64.424-43.438
		s-33.231-40.292-43.438-64.424C18.69,269.906,13.333,243.366,13.333,216s5.356-53.906,15.921-78.884
		c10.207-24.132,24.822-45.807,43.438-64.424s40.292-33.231,64.424-43.438C162.094,18.69,188.634,13.333,216,13.333 M216,0
		C96.707,0,0,96.705,0,216s96.707,216,216,216c119.293,0,216-96.705,216-216S335.293,0,216,0L216,0z"/>
</g>
<path style="display:none;fill:#FFFFFF;stroke:#FF6138;stroke-width:15.4517;stroke-linecap:round;stroke-miterlimit:10;" d="
	M285.532,172.938c0,0-50.918-1.844-50.918,72.836"/>
<path style="fill:#FF6138;" d="M322.194,180.596c-1.949-1.88-3.941-3.523-5.94-4.974c-2.982,4.507-6.681,8.34-10.901,11.266
	c2.05,1.314,4.114,2.9,6.115,4.83c11.45,11.043,17.256,29.23,17.256,54.057c0,4.267,3.459,7.726,7.726,7.726
	s7.726-3.459,7.726-7.726C344.175,216.592,336.779,194.663,322.194,180.596z"/>
<path style="fill:#FF6138;" d="M115.811,175.623c-2,1.45-3.992,3.094-5.941,4.974c-14.585,14.066-21.981,35.995-21.981,65.178
	c0,4.267,3.459,7.726,7.726,7.726s7.726-3.459,7.726-7.726c0-24.663,5.732-42.78,17.039-53.846c2.072-2.028,4.206-3.687,6.318-5.051
	C122.482,183.953,118.789,180.124,115.811,175.623z"/>
<path style="fill:none;" d="M146.532,118.78c-5.775,0-11.342,2.77-15.675,7.799c-4.899,5.686-7.597,13.391-7.597,21.696
	s2.698,16.011,7.597,21.696c4.333,5.029,9.899,7.799,15.675,7.799s11.342-2.77,15.675-7.799c1.039-1.205,1.972-2.507,2.808-3.88
	c-0.068-1.256-0.114-2.519-0.114-3.794c0-8.053,1.377-15.729,3.859-22.742c-1.205-4.901-3.429-9.351-6.553-12.977
	C157.875,121.55,152.308,118.78,146.532,118.78z"/>
<path style="fill:none;" d="M267.957,167.498c0.592,0.859,1.223,1.688,1.9,2.474c4.332,5.029,9.899,7.799,15.675,7.799
	s11.342-2.77,15.675-7.799c4.898-5.686,7.596-13.392,7.596-21.696s-2.697-16.011-7.596-21.696
	c-4.333-5.029-9.899-7.799-15.675-7.799s-11.343,2.77-15.675,7.799c-2.789,3.237-4.862,7.13-6.133,11.414
	c2.845,7.431,4.438,15.649,4.438,24.305C268.163,164.052,268.084,165.782,267.957,167.498z"/>
<path style="fill:#FF6138;" d="M285.532,103.329c-12.767,0-24.088,7.175-31.142,18.236c3.843,4.81,7.008,10.353,9.334,16.428
	c1.271-4.284,3.344-8.177,6.133-11.414c4.332-5.029,9.899-7.799,15.675-7.799s11.342,2.77,15.675,7.799
	c4.898,5.686,7.596,13.392,7.596,21.696s-2.697,16.011-7.596,21.696c-4.333,5.029-9.899,7.799-15.675,7.799
	s-11.343-2.77-15.675-7.799c-0.678-0.786-1.309-1.614-1.9-2.474c-0.475,6.404-1.805,12.524-3.878,18.194
	c6.142,4.754,13.518,7.529,21.453,7.529c21.385,0,38.723-20.123,38.723-44.946S306.917,103.329,285.532,103.329z"/>
<path style="fill:#FF6138;" d="M162.207,169.972c-4.333,5.029-9.899,7.799-15.675,7.799s-11.342-2.77-15.675-7.799
	c-4.899-5.686-7.597-13.391-7.597-21.696s2.698-16.011,7.597-21.696c4.333-5.029,9.899-7.799,15.675-7.799s11.342,2.77,15.675,7.799
	c3.124,3.626,5.349,8.075,6.553,12.977c2.259-6.387,5.437-12.221,9.35-17.278c-7.018-11.462-18.541-18.948-31.578-18.948
	c-21.386,0-38.723,20.123-38.723,44.946s17.337,44.946,38.723,44.946c8.277,0,15.942-3.024,22.235-8.159
	c-2.093-5.909-3.393-12.291-3.752-18.971C164.179,167.465,163.246,168.767,162.207,169.972z"/>
<path style="fill:#FFFFFF;" d="M165.015,166.092c3.107-5.104,4.789-11.272,4.789-17.816c0-3.009-0.359-5.937-1.043-8.72
	c-2.481,7.014-3.859,14.689-3.859,22.742C164.901,163.573,164.947,164.836,165.015,166.092z"/>
<path style="fill:#FFFFFF;" d="M267.957,167.498c0.127-1.716,0.206-3.446,0.206-5.2c0-8.655-1.594-16.874-4.438-24.305
	c-0.961,3.241-1.464,6.705-1.464,10.282C262.261,155.432,264.269,162.141,267.957,167.498z"/>
<path style="fill:#FF6138;" d="M260.479,207.868c-2.048-1.739-4.097-3.328-6.129-4.786c-3.371,4.21-7.257,7.855-11.543,10.804
	c2.514,1.664,5.087,3.568,7.669,5.761c23.695,20.123,36.221,54.593,36.221,99.683c0,4.267,3.459,7.726,7.726,7.726
	s7.726-3.459,7.726-7.726C302.147,256.455,279.487,224.013,260.479,207.868z"/>
<path style="fill:#FF6138;" d="M178.717,203.08c-2.033,1.459-4.082,3.048-6.131,4.788c-19.01,16.145-41.67,48.586-41.67,111.461
	c0,4.267,3.459,7.726,7.726,7.726s7.726-3.459,7.726-7.726c0-44.646,12.293-78.917,35.552-99.108
	c2.798-2.43,5.605-4.522,8.349-6.329C185.979,210.942,182.09,207.295,178.717,203.08z"/>
<path style="fill:#FF6138;" d="M216.532,117.821c19.949,0,36.179,19.952,36.179,44.477s-16.229,44.477-36.179,44.477
	s-36.179-19.952-36.179-44.477S196.583,117.821,216.532,117.821 M216.532,102.369c-28.514,0-51.631,26.831-51.631,59.929
	s23.117,59.929,51.631,59.929c28.514,0,51.631-26.831,51.631-59.929S245.046,102.369,216.532,102.369L216.532,102.369z"/>
</svg>
