<?xml version="1.0" encoding="utf-8"?>
<!-- Generator: Adobe Illustrator 15.0.0, SVG Export Plug-In . SVG Version: 6.00 Build 0)  -->
<!DOCTYPE svg PUBLIC "-//W3C//DTD SVG 1.1//EN" "http://www.w3.org/Graphics/SVG/1.1/DTD/svg11.dtd">
<svg version="1.1" id="Layer_1" xmlns="http://www.w3.org/2000/svg" xmlns:xlink="http://www.w3.org/1999/xlink" x="0px" y="0px"
	 width="100px" height="100px" viewBox="0 0 100 100" enable-background="new 0 0 100 100" xml:space="preserve">
<g id="_x37_7_Essential_Icons">
	<path id="Profile" fill="#FFFFFF" d="M44,50c0,1.1-0.9,2-2,2H24c-1.1,0-2-0.9-2-2c0-1.1,0.9-2,2-2h18C43.1,48,44,48.9,44,50z
		 M38,62H24c-1.1,0-2,0.9-2,2s0.9,2,2,2h14c1.1,0,2-0.9,2-2S39.1,62,38,62z M42,34H24c-1.1,0-2,0.9-2,2s0.9,2,2,2h18
		c1.1,0,2-0.9,2-2S43.1,34,42,34z M88,26v48c0,1.1-0.9,2-2,2H14c-1.1,0-2-0.9-2-2V26c0-1.1,0.9-2,2-2h72C87.1,24,88,24.9,88,26z
		 M84,28H16v44h68V28z M77.9,64c0,1.1-0.9,2-2,2H48c-1.1,0-2-0.9-2-2c0-6.6,3.9-12.2,9.6-14.7C53.7,47.4,52.4,44.8,52.4,42
		c0-5.3,4.399-10,9.5-10c5.1,0,9.5,4.7,9.5,10c0,2.8-1.2,5.4-3.2,7.3C73.9,51.8,77.9,57.4,77.9,64z M56.4,42c0,2.8,2.399,6,5.5,6
		c3.1,0,5.5-3.2,5.5-6s-2.4-6-5.5-6C58.8,36,56.4,39.2,56.4,42z M73.8,62C72.9,56.3,67.9,52,62,52s-10.8,4.3-11.8,10H73.8z"/>
</g>
<g id="Guides">
</g>
<g id="Info">
	<g id="BORDER">
		<path fill="#0000FF" d="M1364-790V894H-420V-790H1364 M1372-798H-428V902h1800V-798L1372-798z"/>
	</g>
</g>
</svg>
