<?xml version="1.0" encoding="utf-8"?>
<!-- Generator: Adobe Illustrator 15.0.0, SVG Export Plug-In . SVG Version: 6.00 Build 0)  -->
<!DOCTYPE svg PUBLIC "-//W3C//DTD SVG 1.1//EN" "http://www.w3.org/Graphics/SVG/1.1/DTD/svg11.dtd">
<svg version="1.1" id="Layer_1" xmlns="http://www.w3.org/2000/svg" xmlns:xlink="http://www.w3.org/1999/xlink" x="0px" y="0px"
	 width="100px" height="100px" viewBox="0 0 100 100" enable-background="new 0 0 100 100" xml:space="preserve">
<g id="_x37_7_Essential_Icons">
	<path id="Tag" fill="#FFFFFF" d="M84,14H56.6c-0.5,0-1,0.2-1.399,0.6L14.6,55.1c-0.8,0.801-0.8,2.101,0,2.801L42,85.4
		c0.8,0.8,2,0.8,2.8,0l40.5-40.5c0.4-0.4,0.601-0.9,0.601-1.4V16C86,14.9,85.1,14,84,14z M82,42.6L43.5,81.2L18.8,56.6L57.4,18H82
		V42.6z M68,23.9c-4.4,0-8,3.6-8,8s3.6,8,8,8s8-3.6,8-8S72.4,23.9,68,23.9z M70.8,34.8c-1.5,1.5-4.2,1.5-5.7,0
		c-1.6-1.6-1.6-4.1,0-5.7c1.601-1.6,4.101-1.6,5.7,0C72.4,30.7,72.4,33.2,70.8,34.8z"/>
</g>
<g id="Guides">
</g>
<g id="Info">
	<g id="BORDER">
		<path fill="#0000FF" d="M664-1070V614h-1784v-1684H664 M672-1078h-1800V622H672V-1078L672-1078z"/>
	</g>
</g>
</svg>
