<?xml version="1.0" encoding="utf-8"?>
<!-- Generator: Adobe Illustrator 15.0.0, SVG Export Plug-In  -->
<!DOCTYPE svg PUBLIC "-//W3C//DTD SVG 1.1//EN" "http://www.w3.org/Graphics/SVG/1.1/DTD/svg11.dtd" [
	<!ENTITY ns_flows "http://ns.adobe.com/Flows/1.0/">
]>
<svg version="1.1"
	 xmlns="http://www.w3.org/2000/svg" xmlns:xlink="http://www.w3.org/1999/xlink" xmlns:a="http://ns.adobe.com/AdobeSVGViewerExtensions/3.0/"
	 x="0px" y="0px" width="432px" height="432px" viewBox="0.333 -0.5 432 432" style="enable-background:new 0.333 -0.5 432 432;"
	 xml:space="preserve">
<defs>
</defs>
<g id="Circle_3_">
	<path style="fill:#FF6138;" d="M216,13.333c27.365,0,53.905,5.356,78.883,15.921c24.132,10.207,45.807,24.822,64.424,43.438
		c18.617,18.617,33.232,40.292,43.438,64.424c10.565,24.977,15.922,51.517,15.922,78.883c0,27.366-5.356,53.906-15.922,78.884
		c-10.206,24.132-24.821,45.807-43.438,64.424c-18.616,18.616-40.292,33.231-64.424,43.438
		c-24.978,10.564-51.518,15.921-78.883,15.921c-27.366,0-53.906-5.356-78.883-15.921c-24.132-10.207-45.808-24.822-64.424-43.438
		c-18.617-18.617-33.231-40.292-43.438-64.424C18.69,269.906,13.333,243.366,13.333,216c0-27.366,5.356-53.906,15.921-78.883
		c10.207-24.132,24.822-45.807,43.438-64.424c18.617-18.617,40.292-33.231,64.424-43.438C162.094,18.69,188.634,13.333,216,13.333
		 M216,0C96.707,0,0,96.707,0,216c0,119.295,96.707,216,216,216c119.293,0,216-96.705,216-216C432,96.707,335.293,0,216,0L216,0z"/>
</g>
<path style="fill:none;" d="M276.711,123.071c-8.423,0-16.443,2.449-23.196,7.084l-23.805,16.337v-0.001l-12.929,8.873
	l-27.292,18.729c-3.667,21.774-0.674,39.923,8.95,53.946c9.624,14.023,25.481,23.344,47.117,27.752l27.294-18.73l36.732-25.208
	c20.156-13.833,23.98-43.414,8.523-65.939C308.289,131.61,292.814,123.071,276.711,123.071z"/>
<path style="fill:none;" d="M185.904,236.642c-9.578-13.956-13.941-31.447-12.935-51.211l-48.84,33.52
	c-9.564,6.563-15.792,16.889-17.535,29.074c-1.812,12.663,1.389,25.754,9.012,36.861c9.816,14.302,25.292,22.841,41.396,22.841
	c8.422,0,16.443-2.449,23.195-7.082l14.393-9.878l0,0.002l34.446-23.641C210.233,260.96,195.481,250.598,185.904,236.642z"/>
<path style="fill:#FF6138;" d="M330.641,137.312c-13.056-19.023-33.667-29.443-53.93-29.443c-11.143,0-22.179,3.15-31.799,9.752
	v-0.001l-36.734,25.21l-30.515,20.941l-62.138,42.645c-27.11,18.604-32.688,57.588-12.455,87.073
	c13.056,19.022,33.668,29.44,53.931,29.44c11.143,0,22.178-3.148,31.797-9.75l0.001,0.002l62.137-42.645l30.515-20.94l36.733-25.209
	C345.297,205.779,350.872,166.795,330.641,137.312z M194.59,290.767l-14.393,9.878c-6.752,4.633-14.772,7.082-23.195,7.082
	c-16.104,0-31.58-8.539-41.396-22.841c-7.623-11.107-10.824-24.198-9.012-36.861c1.743-12.186,7.97-22.511,17.535-29.074
	l48.84-33.52c-1.006,19.764,3.357,37.255,12.935,51.211s24.33,24.318,43.132,30.486l-34.446,23.641L194.59,290.767z
	 M309.582,211.852l-36.732,25.208l-27.294,18.73c-21.636-4.408-37.493-13.729-47.117-27.752
	c-9.624-14.023-12.617-32.171-8.95-53.946l27.292-18.729l12.929-8.873v0.001l23.805-16.337c6.753-4.635,14.773-7.084,23.196-7.084
	c16.104,0,31.578,8.539,41.395,22.842C333.563,168.438,329.738,198.019,309.582,211.852z"/>
</svg>
